<?xml version="1.0" standalone="no"?>
<!DOCTYPE svg PUBLIC "-//W3C//DTD SVG 20010904//EN"
 "http://www.w3.org/TR/2001/REC-SVG-20010904/DTD/svg10.dtd">
<svg version="1.0" xmlns="http://www.w3.org/2000/svg"
 width="409.000000pt" height="145.000000pt" viewBox="0 0 409.000000 145.000000"
 preserveAspectRatio="xMidYMid meet">

<g transform="translate(0.000000,145.000000) scale(0.100000,-0.100000)"
fill="#000000" stroke="none">
<path d="M1144 1371 c-48 -12 -110 -51 -134 -83 -76 -103 -55 -250 48 -321 71
-50 143 -59 238 -31 43 12 62 13 86 5 17 -6 33 -11 34 -11 2 0 4 45 4 100 l0
100 -70 0 c-56 0 -70 -3 -70 -15 0 -10 11 -15 35 -15 35 0 35 -1 35 -43 0
-105 -115 -152 -205 -83 -42 33 -92 130 -100 200 -6 42 -3 63 13 99 24 55 59
80 112 79 47 -1 74 -14 121 -59 32 -30 42 -34 80 -31 l43 3 -34 38 c-18 21
-46 45 -61 53 -35 17 -133 26 -175 15z"/>
<path d="M2512 1361 c-97 -33 -153 -113 -153 -216 0 -235 340 -313 446 -102
65 132 2 280 -137 322 -66 19 -91 19 -156 -4z m126 -28 c37 -18 89 -83 109
-136 16 -45 16 -143 -1 -175 -68 -131 -226 -94 -287 67 -40 107 -21 218 43
249 34 16 96 14 136 -5z"/>
<path d="M3268 1366 c-118 -32 -186 -123 -175 -236 8 -97 70 -168 171 -200 71
-23 182 6 230 59 18 20 18 21 1 21 -11 0 -34 -15 -53 -32 -28 -28 -40 -33 -82
-33 -61 0 -112 38 -154 114 -34 63 -46 162 -26 211 28 67 112 101 171 69 11
-5 43 -9 72 -7 l52 3 -30 16 c-43 24 -122 30 -177 15z"/>
<path d="M50 1363 c1 -5 7 -19 15 -33 20 -36 20 -324 0 -360 -8 -14 -14 -28
-15 -33 0 -4 71 -6 158 -5 l157 3 3 38 c2 20 -1 37 -6 37 -6 0 -32 -11 -59
-25 -27 -14 -70 -26 -98 -27 l-50 -3 -3 88 -3 87 51 0 c67 0 64 24 -3 28 l-47
3 0 90 0 89 48 0 c32 0 66 -9 98 -25 67 -34 74 -32 74 15 l0 40 -160 0 c-88 0
-160 -3 -160 -7z"/>
<path d="M410 1363 c1 -5 7 -19 15 -33 21 -36 21 -337 0 -364 -8 -11 -15 -23
-15 -28 0 -4 72 -8 160 -8 l160 0 0 25 c0 29 -6 30 -69 9 -26 -8 -70 -14 -97
-12 l-49 3 -3 164 c-2 144 0 169 16 202 11 21 17 41 14 44 -8 8 -132 6 -132
-2z"/>
<path d="M1631 1348 c-5 -13 -39 -99 -76 -193 -36 -93 -75 -179 -86 -191 -27
-29 -24 -34 17 -34 33 0 36 2 30 24 -4 15 2 43 14 70 l19 46 105 0 104 0 18
-46 c14 -37 15 -50 6 -65 -7 -10 -12 -21 -12 -24 0 -3 29 -5 65 -5 36 0 65 3
65 7 0 4 -11 18 -24 32 -13 15 -56 110 -96 214 l-73 187 -34 0 c-25 0 -36 -5
-42 -22z m72 -138 l45 -115 -90 -3 c-50 -1 -93 -1 -95 2 -3 2 12 46 32 98 21
51 41 104 46 117 5 13 11 22 14 19 2 -2 24 -55 48 -118z"/>
<path d="M1910 1340 c0 -34 18 -39 60 -15 14 8 47 14 73 15 l49 0 -4 -173 c-2
-144 -6 -177 -20 -200 -10 -14 -18 -29 -18 -32 0 -3 32 -5 71 -5 l71 0 -18 28
c-16 23 -19 51 -22 205 l-4 177 54 0 c31 -1 61 -7 72 -15 33 -25 56 -19 56 15
l0 30 -210 0 -210 0 0 -30z"/>
<path d="M3597 1363 c-4 -3 1 -15 10 -26 26 -28 32 -321 9 -369 -9 -17 -16
-33 -16 -35 0 -1 16 -3 36 -3 31 0 35 2 28 18 -5 9 -10 98 -12 197 -2 155 -1
178 11 165 12 -13 84 -122 210 -322 33 -53 40 -58 72 -58 l35 0 0 199 c0 164
3 201 15 211 24 20 17 30 -21 30 -33 0 -36 -2 -28 -22 11 -32 17 -381 7 -375
-5 3 -65 94 -134 201 l-124 195 -46 1 c-25 0 -49 -3 -52 -7z"/>
<path d="M3351 1282 c-50 -25 -73 -61 -73 -115 -1 -53 19 -89 65 -117 117 -72
254 58 189 179 -35 64 -114 88 -181 53z m102 -32 c36 -32 59 -93 50 -133 -9
-35 -44 -67 -73 -67 -31 0 -76 37 -90 75 -18 47 -12 112 12 135 30 28 62 25
101 -10z"/>
<path d="M1010 786 c-167 -49 -270 -174 -278 -338 -8 -159 70 -287 217 -355
188 -88 435 -5 518 174 115 250 -51 517 -330 529 -49 2 -100 -2 -127 -10z
m145 -47 c183 -69 292 -359 198 -531 -99 -181 -326 -142 -433 75 -83 168 -79
336 9 420 63 60 132 71 226 36z"/>
<path d="M50 781 c0 -6 11 -31 25 -57 25 -46 25 -50 25 -294 0 -243 0 -247
-25 -296 -14 -27 -25 -52 -25 -56 0 -5 102 -8 228 -8 199 0 232 3 267 19 76
35 115 102 111 188 -4 67 -35 117 -97 152 l-49 28 21 19 c32 29 59 89 59 131
-1 77 -44 137 -123 171 -34 15 -417 17 -417 3z m409 -50 c87 -62 81 -195 -11
-251 -27 -16 -51 -20 -135 -20 l-103 0 0 143 c0 79 3 147 8 151 4 5 52 6 108
4 84 -4 106 -8 133 -27z m32 -334 c72 -48 89 -161 34 -233 -40 -53 -76 -64
-205 -64 l-110 0 0 160 0 159 88 3 c107 4 159 -3 193 -25z"/>
<path d="M1580 778 c0 -7 11 -35 25 -62 25 -49 25 -53 25 -291 0 -239 0 -243
-25 -289 -14 -26 -25 -51 -25 -57 0 -5 101 -9 255 -9 l255 0 0 45 c0 53 -10
56 -73 23 -35 -18 -63 -23 -160 -26 l-118 -4 3 289 3 290 28 41 c15 23 27 46
27 52 0 6 -42 10 -110 10 -81 0 -110 -3 -110 -12z"/>
<path d="M2319 777 c-113 -32 -169 -91 -169 -178 0 -37 5 -48 43 -83 24 -23
86 -65 138 -94 52 -29 116 -69 142 -88 142 -104 103 -224 -73 -224 -72 0 -119
18 -170 66 -32 30 -56 44 -74 44 -26 0 -27 -2 -24 -47 l3 -48 60 -25 c53 -21
75 -24 185 -25 111 0 130 3 173 24 26 12 59 38 74 57 27 36 40 104 29 149 -12
48 -87 115 -211 188 -191 113 -220 150 -163 212 60 66 161 61 238 -11 26 -24
57 -44 69 -44 20 0 22 4 19 48 l-3 47 -53 17 c-72 24 -176 31 -233 15z"/>
<path d="M3006 782 c-2 -4 -59 -147 -126 -317 -88 -227 -129 -318 -151 -340
-43 -46 -38 -55 31 -55 64 0 66 1 50 47 -9 25 -6 42 18 104 l30 74 170 3 169
2 23 -52 c31 -72 36 -120 16 -137 -9 -7 -16 -20 -16 -27 0 -11 23 -14 110 -14
67 0 110 4 110 10 0 6 -17 25 -38 44 -34 31 -51 69 -162 350 l-124 316 -52 0
c-29 0 -55 -4 -58 -8z m102 -246 c39 -101 72 -188 72 -195 0 -8 -44 -11 -150
-11 -97 0 -150 4 -150 10 0 17 143 380 149 380 3 0 39 -83 79 -184z"/>
<path d="M3662 775 c-101 -28 -155 -74 -168 -140 -15 -79 15 -114 188 -216
144 -85 203 -137 220 -191 10 -34 9 -42 -8 -65 -25 -33 -73 -51 -137 -52 -82
-2 -134 17 -180 65 -30 31 -50 44 -70 44 -27 0 -28 -1 -25 -47 3 -44 6 -49 38
-65 97 -45 298 -51 376 -10 79 41 124 123 104 190 -23 82 -58 115 -230 216
-134 79 -170 110 -170 146 0 116 212 135 284 25 12 -18 25 -25 47 -25 30 0 30
1 27 47 l-3 47 -58 18 c-85 26 -172 31 -235 13z"/>
</g>
</svg>
